PathFileType	4	(X/Y/Z)	57_1_35_p1_0-324_filt_butterworth.trc
DataRate	CameraRate	NumFrames	NumMarkers	Units	OrigDataRate	OrigDataStartFrame	OrigNumFrames
59.0	59.0	6	27	m	59.0	243	324
Frame#	Time	RHip			RKnee			RAnkle			RBigToe			RSmallToe			RHeel			LHip			LKnee			LAnkle			LBigToe			LSmallToe			LHeel			Neck			Head			Nose			RShoulder			RElbow			RWrist			RThumb			RIndex			RPinky			LShoulder			LElbow			LWrist			LThumb			LIndex			LPinky			
		X1	Y1	Z1	X2	Y2	Z2	X3	Y3	Z3	X4	Y4	Z4	X5	Y5	Z5	X6	Y6	Z6	X7	Y7	Z7	X8	Y8	Z8	X9	Y9	Z9	X10	Y10	Z10	X11	Y11	Z11	X12	Y12	Z12	X13	Y13	Z13	X14	Y14	Z14	X15	Y15	Z15	X16	Y16	Z16	X17	Y17	Z17	X18	Y18	Z18	X19	Y19	Z19	X20	Y20	Z20	X21	Y21	Z21	X22	Y22	Z22	X23	Y23	Z23	X24	Y24	Z24	X25	Y25	Z25	X26	Y26	Z26	X27	Y27	Z27	
243	4.11864406779661	0.24700642400052034	0.5901764997565474	0.827232242743879	0.23573172878414841	0.20638211270839119	0.785216885517242	0.24572756875655427	-0.22876723633420853	0.8306018290967362	0.2341259391436472	-0.20932908070254025	0.6390456288721914	0.30713538856278544	-0.22033249015471829	0.6816754036108226	0.2350455362276882	-0.3078748475579611	0.9148262404359245	0.02429027232139569	0.5800016866070821	0.8256051357596326	0.043149673902435653	0.18036305794090154	0.8220636445375864	0.06826517801646856	-0.2483552090281543	0.8524882719778886	0.08201462738047222	-0.19444549764760335	0.6308040819654391	0.02785059622588463	-0.24516636915384352	0.7065852265747632	0.09269357502483189	-0.30865988085321255	0.8826257034517637	0.13879284052091062	1.1527960457410475	0.801689636259022	0.13705276614555442	1.3964309575085994	0.7730083750708654	0.14564996147965042	1.2899033823624522	0.6489669467137262	0.2849317452436457	1.0949481165925523	0.8052822182195695	0.3512273611659771	0.8566972507483782	0.79112486112455	0.22676504022615462	0.7331698093386468	0.641403716765289	0.17527883569759467	0.650705941040176	0.6118414526084633	0.16792571507386245	0.6394531885991878	0.6287532017800337	0.19043246213603313	0.6552217902461813	0.5845048937263545	-0.03231716194228459	1.088487720734782	0.8006871634133692	-0.07804349586520913	0.8168415043111021	0.7973335553645517	0.06942418602065832	0.652332058102033	0.6980995396933468	0.15136047510116535	0.6210939765899639	0.6660327877149248	0.15530870460210594	0.5970808373996703	0.6643527010144135	0.13590519466117507	0.5890518983701166	0.6736398390353973	
244	4.135593220338983	0.246928600481337	0.5905370120891442	0.8275223591682078	0.23550922625697668	0.2059853621849305	0.7856519871242573	0.24609265590548351	-0.22784007524836347	0.8291325162334218	0.23470424255504552	-0.21072945124722184	0.6410425496410782	0.30713126092362153	-0.21979820618930823	0.680873384242005	0.23505810843755404	-0.308174740151321	0.9147581502839381	0.02423560778465535	0.5800868111937657	0.82593718123714	0.04307297574033013	0.18056302476604869	0.8221307385177943	0.0682728772795166	-0.2485466979745766	0.8525858212796149	0.0822231184399072	-0.19548005206704036	0.6311562168099214	0.02784529620128745	-0.24521618198270612	0.7066489890545853	0.09273002935852731	-0.30868507185382804	0.88265125879436	0.138081712647888	1.1535157841213115	0.803902547293982	0.1350446650007911	1.3972463207919525	0.7714667372520432	0.14431507529220666	1.2907554039192393	0.6492119632459142	0.2849915181858358	1.0942912565250722	0.8056454497347992	0.35136460521401214	0.855254776371368	0.7904510102816154	0.23033972239644368	0.7282852966758112	0.6442989498440843	0.1765890046666047	0.6501658028271461	0.6097542752986342	0.1695720846624991	0.6388330983486756	0.6261798239621825	0.19151737235851712	0.6511685367221353	0.5858072439901179	-0.03343137846939849	1.0884826466815984	0.803473771216052	-0.0786978686768687	0.8170054611898485	0.7973230531623614	0.06666796708413082	0.6507643996089405	0.6934227370355286	0.14831674923050742	0.6181440196860926	0.6655078210105496	0.15248717002255233	0.591569281632572	0.6650918906841274	0.1316745101553951	0.5829563031706086	0.6780293765373776	
245	4.152542372881356	0.24687130460894854	0.5908773114795594	0.8277357999196123	0.2354103851394847	0.20549859634785791	0.786293165543718	0.24649810978635067	-0.22678627804492274	0.8275175897895802	0.2353254225958198	-0.21173726800672452	0.6424791107572578	0.3071317246746348	-0.21875709331116877	0.6794045696079274	0.2350925570041164	-0.30855863872778705	0.9146239657997975	0.02416034793060142	0.5802189440404508	0.8259765008711142	0.042849496162034	0.18068103872997823	0.8221424825912249	0.06838611850544413	-0.24895173584277974	0.8526834501112471	0.08243666043495326	-0.19656249204618448	0.6314647735765647	0.02782420604558714	-0.24524361253816848	0.7067548635373653	0.09276382575411761	-0.3087220911004759	0.8827041151373585	0.13722572119036597	1.153574140826698	0.8069965510303696	0.13257237366460087	1.3980802872667188	0.7694423400201393	0.14262416675652237	1.2912666111323352	0.6502721102906727	0.28507154291640124	1.0934774653919423	0.806034977970916	0.35179543442653183	0.8541926775483333	0.7890826880436781	0.2339202810819671	0.7220326188865449	0.6471948301473225	0.1772196214693487	0.6482629991932629	0.6110273083087472	0.17093344594264204	0.6364149097227297	0.6248898958784489	0.1927146912528293	0.6457102243629266	0.5869006525926885	-0.0344410203799765	1.0882441188600342	0.8061439724492762	-0.07867488458178795	0.816769506916352	0.7976220573782381	0.06395848443977885	0.6489248757432731	0.6905393735787124	0.1448946236564702	0.6140438686667649	0.665145408824595	0.14908840163175335	0.584893320964354	0.6668832901183437	0.12600807593777755	0.5746891654633473	0.6858094831168677	
246	4.169491525423729	0.24684640061338822	0.5912127470702616	0.8278405524790858	0.23539631166952962	0.20495245718494248	0.7871263202350341	0.2468923574368726	-0.2257225075306964	0.8259706564080311	0.23567766537415155	-0.21211305332245764	0.6430045918869329	0.30711819999555745	-0.21746736454902077	0.6776220181895729	0.23514455235270193	-0.3089662560545493	0.9144463861237678	0.02411521474177618	0.5803193398890901	0.8259339375592409	0.042548113799674527	0.18073243164392575	0.822120704686848	0.06859487053912117	-0.2494865984304337	0.852804812845162	0.08260236055024398	-0.19753247848424965	0.6316579674638896	0.027784528180340266	-0.24522815869580158	0.7069014729390888	0.09279224931170926	-0.30875356584906316	0.8827521318300342	0.13635179439200065	1.1533404871263393	0.810099021044114	0.12981448481568747	1.3990894465376902	0.7667393165826848	0.14072626543991848	1.2913939498496922	0.6523044347876102	0.2851540238604872	1.092722480621922	0.8060429234100801	0.3524179172342602	0.8537837790375209	0.7871137345594978	0.2373079718383051	0.7145720227152214	0.6499865125268511	0.1771639525664784	0.6444307195121011	0.6160942233728619	0.17207126629536695	0.6311432542055089	0.6253607976261024	0.1939705842336058	0.638369577542045	0.5877751534443836	-0.035223454229274795	1.0877258751865724	0.8084165237867834	-0.0777750026097774	0.8161750768111335	0.7979206718322353	0.0609595638707097	0.646685964200997	0.6892579784653271	0.14116241682482022	0.6082244229088986	0.6654132150395746	0.1450933058618653	0.5767555661770785	0.6691377619294541	0.119533384698201	0.5640594386346115	0.6958518043874674	
247	4.186440677966102	0.24682457250326922	0.591636452223011	0.8278124864772023	0.23545952252384153	0.20442717004806837	0.7881492885589281	0.24722136269127867	-0.22479655990799954	0.8246971892475656	0.23567018792411237	-0.2117998416463555	0.6425422579252434	0.3070972814644651	-0.21639457000054163	0.6761488265727611	0.2352047475618681	-0.30934470436827166	0.9142536327464579	0.024144692184842904	0.5803569433341799	0.8260939107951425	0.04222925663465222	0.18079890596857265	0.8220757082405252	0.06890346320176588	-0.25005946667968837	0.8529563020008042	0.0826625669074007	-0.1982376705756932	0.6316855089187441	0.027738973946731065	-0.2452237783655224	0.7070433870783295	0.09281570299580814	-0.3087741726237674	0.8827848142416015	0.1355713319959778	1.153143060106354	0.8126135870487607	0.12702815902190684	1.4003428935904054	0.7630885285107674	0.13861639128098263	1.2910542960170746	0.6553885956774413	0.28523135975470315	1.092118378876286	0.8057849412378084	0.35298023675885853	0.8540209169127267	0.7847012493358096	0.2403490482535134	0.7061045630843273	0.6525743319970683	0.17662094267419798	0.6383336524340936	0.6240981385606015	0.17292008279561338	0.6224126759327977	0.6277613637239026	0.19525771246792503	0.6288541394966559	0.5887345103449996	-0.03563354971395452	1.0870380704450502	0.8098710006484193	-0.07620841580497235	0.815214577897045	0.7981699848909287	0.05754048203044949	0.6441796148881375	0.6891192756416389	0.13736106519898816	0.6005684592315416	0.6664226759603962	0.1407258600649361	0.5675102806386529	0.6710980261343252	0.11312996986651468	0.5517569903535313	0.7063110227710476	
248	4.203389830508475	0.2467558972050532	0.5921662524888227	0.8276916636107796	0.23564355860814212	0.2040171815861168	0.7893242484789063	0.24746147332661086	-0.22409884263354474	0.8237635388851764	0.23547293264639207	-0.21087508934986504	0.6412268783856748	0.3070942807998538	-0.21591063975416294	0.6754843840273319	0.23526336080757296	-0.3096846741719228	0.9140613204965939	0.024266332349813555	0.5803218540367919	0.8266347486384464	0.04194366081740596	0.18090617976073609	0.822000141729668	0.06931899305606895	-0.2505792938215799	0.8531284908409839	0.08257655869879221	-0.19856132670766852	0.6315148346756451	0.02771361833328497	-0.24535072111458203	0.7070930145367686	0.09283676762086082	-0.3087880337096571	0.8828107307270037	0.13492584351300663	1.1531292199915528	0.8142475936625371	0.12440723366913145	1.4017071853115586	0.7584841078229971	0.13626626369281614	1.290156003596814	0.6595609014804363	0.28529884105136016	1.0917300637295733	0.8054945106324511	0.3531783811734782	0.8543712601526969	0.7822888197978579	0.24298568237056456	0.6969117898015513	0.6548439697968416	0.1758616177948173	0.6299692654525243	0.6331711204715668	0.17338990585426445	0.610550134889978	0.6317031189817115	0.19652365133332944	0.6174047501901545	0.590381621663705	-0.03553721752102393	1.086408864384277	0.8100497705149252	-0.07432556490504887	0.8138527910091062	0.7985353755509677	0.05416895361266287	0.6413331494595218	0.6899752568952939	0.133851705301295	0.5916217572371263	0.6680153980472154	0.13652856261730903	0.5582320904520619	0.6723651809971978	0.10779893908041074	0.5392410587657813	0.7150809522943684	
